<svg width="24" height="24" viewBox="0 0 24 24" fill="none" xmlns="http://www.w3.org/2000/svg">
  <g clip-path="url(#clip0_1_1)">
    <path d="M23.6382 14.9343C22.1533 21.2 15.8026 25.0785 9.53691 23.5937C3.27122 22.1089 -0.607335 15.7581 0.877506 9.49244C2.36235 3.22675 8.7131 -0.651807 14.9788 0.833033C21.2445 2.31787 25.123 8.66863 23.6382 14.9343Z" fill="#F7931A"/>
    <path d="M17.2936 10.2979C17.5224 8.7369 16.3202 7.88135 14.6894 7.30874L15.1711 5.47197L14.0117 5.15099L13.5424 6.93943C13.246 6.86744 12.941 6.79916 12.6371 6.73171L13.1097 4.9309L11.9513 4.60992L11.4687 6.44586C11.2195 6.39071 10.9753 6.33638 10.7383 6.27937L10.7394 6.27463L9.1124 5.83353L8.77288 7.06833C8.77288 7.06833 9.61987 7.25835 9.59707 7.27137C10.0931 7.39153 10.1991 7.71497 10.1837 7.97273L9.63366 10.0583C9.67371 10.0691 9.72526 10.0855 9.78041 10.1083C9.73493 10.0968 9.68577 10.084 9.63385 10.0714L8.86457 13.0243C8.79421 13.1793 8.61485 13.4065 8.26028 13.3229C8.27493 13.3406 7.43326 13.1203 7.43326 13.1203L6.80212 14.4475L8.34255 14.8644C8.61549 14.9309 8.88376 15.0003 9.14809 15.0669L8.66089 16.9277L9.81841 17.2487L10.301 15.4092C10.6093 15.4899 10.9093 15.5643 11.2028 15.6343L10.7921 17.4623L11.9515 17.7833L12.4387 15.9273C14.6498 16.3474 16.2583 16.1847 16.9308 14.2159C17.4739 12.6337 16.9115 11.7267 15.7519 11.1541C16.622 10.9333 17.1237 10.3184 17.2936 10.2979ZM14.4555 13.4888C14.0647 15.0709 11.4958 14.1649 10.6218 13.9399L11.2719 11.4634C12.1459 11.6893 14.8641 11.843 14.4555 13.4888ZM14.8464 10.2752C14.4901 11.7227 12.3627 10.9497 11.6288 10.7616L12.2175 8.51683C12.9514 8.70491 15.2182 8.77003 14.8464 10.2752Z" fill="white"/>
  </g>
  <defs>
    <clipPath id="clip0_1_1">
      <rect width="24" height="24" fill="white"/>
    </clipPath>
  </defs>
</svg>
