<svg width="24" height="24" viewBox="0 0 24 24" fill="none" xmlns="http://www.w3.org/2000/svg">
  <defs>
    <linearGradient id="wallet-grad" x1="0%" y1="0%" x2="100%" y2="100%">
      <stop offset="0%" stop-color="#5b68df" />
      <stop offset="100%" stop-color="#00f6ff" />
    </linearGradient>
  </defs>
  <path d="M19 5V19H5V5H19ZM21 3H3V21H21V3Z" fill="url(#wallet-grad)"/>
  <path d="M16.5 11.5C16.7762 11.5 17 11.7239 17 12C17 12.2761 16.7762 12.5 16.5 12.5C16.2238 12.5 16 12.2761 16 12C16 11.7239 16.2238 11.5 16.5 11.5Z" fill="url(#wallet-grad)"/>
  <path d="M22 10V14C22 14.5523 21.5523 15 21 15H16C14.8954 15 14 14.1046 14 13V11C14 9.89543 14.8954 9 16 9H21C21.5523 9 22 9.44772 22 10Z" stroke="url(#wallet-grad)" stroke-width="2" stroke-linecap="round" stroke-linejoin="round"/>
</svg>
